<?xml version="1.0" encoding="UTF-8"?>
<svg id="Layer_1" xmlns="http://www.w3.org/2000/svg" version="1.1" viewBox="0 0 75 35">
  <!-- Generator: Adobe Illustrator 29.1.0, SVG Export Plug-In . SVG Version: 2.1.0 Build 142)  -->
  <defs>
    <style>
      .st0 {
        fill: #fff;
      }
    </style>
  </defs>
  <path class="st0" d="M27.6,22.73c0,5.18,4.19,9.4,9.35,9.4,2.26,0,4.43-.84,6.1-2.28.67,1.3,1.3,2.47,1.81,3.39h4.72c-.24-.42-1.97-3.49-3.76-7.06.56-1.39.92-2.89.97-3.11v-.03c1.8-8.18,1.28-15.83-1.29-19.04-1.17-1.46-2.49-1.77-3.4-1.77-1.3,0-2.49.62-3.35,1.75-1.33,1.73-1.7,4.38-1.79,6.3-.05.99-.03,2.03.06,3.06h-.07c-5.15,0-9.35,4.22-9.35,9.4h0s0,0,0,0ZM41.73,16.62c-.58-2.19-.81-4.77-.61-6.91.13-1.41.41-2.29.65-2.79.14-.29.55-.31.71-.03.36.6.83,1.78,1.08,3.87.33,2.77.17,6.15-.46,9.67-.6-1.42-1.09-2.74-1.38-3.8ZM31.72,22.73c0-2.9,2.34-5.26,5.23-5.26.26,0,.51.02.76.06.02.05.03.1.04.16.59,2.22,1.92,5.29,3.34,8.24-.98,1.28-2.51,2.05-4.14,2.05-2.88,0-5.23-2.36-5.23-5.26h0ZM24.54,14.73h-4.12v16.88h4.12V14.73ZM67,31.61h-14.88V14.73h13.55l3.64,5.98c.45.73.12,1.69-.67,2.01l-9.32,3.69c-.71.28-.51,1.33.25,1.33h7.43v3.87h0,0ZM55.53,19.45v2.76c0,.67.67,1.13,1.29.88l6.99-2.76c.54-.22.77-.88.46-1.38-.17-.28-.48-.45-.81-.45h-6.99c-.52,0-.94.42-.94.95h0ZM12.16,31.61H1.18v-4.04h9.35c.25,0,.48-.14.59-.36.18-.35.02-.78-.34-.93l-8.25-3.33c-.73-.3-1.24-1-1.26-1.84-.01-.4.11-.79.32-1.13l2.6-4.29c.37-.6,1.01-.97,1.71-.97h10.44v4.04H7.53c-.31,0-.59.16-.75.42-.29.47-.08,1.08.43,1.29l7.75,3.13c.35.14.66.36.89.66.48.64.54,1.47.19,2.15l-2.08,4.09c-.34.67-1.04,1.1-1.79,1.1h0ZM22.47,6.59l-2.33,2.34,2.33,2.34,2.33-2.34-2.33-2.34ZM71.57,17.07v-2.34h.77l.54,1.69.57-1.69h.73v2.34h-.51v-1.33s0-.1,0-.19c0-.09,0-.17.01-.22h-.03l-.58,1.73h-.44l-.55-1.73h-.03c0,.07.01.15.01.23,0,.08,0,.13,0,.16v1.35h-.51ZM70.18,17.07v-1.88h-.61v-.46h1.75v.46h-.62v1.88h-.52Z"/>
</svg>